<?xml version="1.0" encoding="utf-8"?>
<!-- Generator: Adobe Illustrator 24.0.2, SVG Export Plug-In . SVG Version: 6.00 Build 0)  -->
<svg version="1.1" id="Capa_1" xmlns="http://www.w3.org/2000/svg" xmlns:xlink="http://www.w3.org/1999/xlink" x="0px" y="0px"
	 viewBox="0 0 450 464" style="enable-background:new 0 0 450 464;" xml:space="preserve">
<style type="text/css">
	.st0{fill:#C97714;}
	.st1{fill:#E2B2A2;}
	.st2{fill:#FAFF9C;}
	.st3{fill:#BFC4E3;}
	.st4{fill:none;stroke:#CEA36A;stroke-width:3;stroke-miterlimit:10;}
</style>
<path class="st0" d="M392.64,325.76c0,0-16.4,33.51-21.46,36.01s-13.01,10.21-12.93,10.8c0.08,0.59-0.79,7.32-11.51,12.4
	c0,0-6.61,8.72-13.6,10.29c-6.99,1.57-12.3,2.3-12.3,2.3l-30.84,42.11c0,0,2.01,1.52,5.9-0.81c3.88-2.34,19.11-18.26,20.8-19.1
	c1.69-0.83,20.19-14.81,25.76-17.98s20.31-22.63,20.31-22.63s19.92-12.37,29.01-11.82c0,0,4.72-0.65,1,2.87
	c-3.72,3.52-16.18,22.06-16.53,23.91c-0.35,1.85-5.77,10.41-21.71,16.82c-15.94,6.41-27.69,17.04-27.69,17.04s-4.49,6.63-13.93,7.93
	c0,0-10.45,2.65-13.74,4.9c-3.29,2.26-9.27,2.48-11.04,2.73c-1.77,0.24-8.14,12.84-8.14,12.84s8.84-1.22,14.05,1.66
	c5.21,2.89,18.4-10.35,18.4-10.35s12.5-9.54,30.88-15.68c0,0,12.16-7.69,12.93-10.8c0.77-3.11,19.35-16.49,44.71-20
	c0,0-8.03,7.12-8.96,9.05c-0.93,1.93-16.63,27.53-32.3,31.5c-15.68,3.97-36.88,20.12-36.88,20.12s-1.04,5.55-28.3,3.91
	c0,0-10.86-0.3-16.39-5.55l-7.81,13.1c0,0,11.65,10.41,19.32,9.35c7.67-1.06,17.79-6.06,17.79-6.06s-2.01-1.52,22.16-4.86
	s30.96-15.09,30.96-15.09s4.78-13.28,35.46-21.72c0,0-19.13,22.47-20.25,27.43s-6.54,13.52-29.99,22.17s-30.62,13.24-43.98,7.88
	c0,0-11.77-2.58-20.27-3.21c0,0-6.77-9.88-11.14-11.08s-0.08-0.59-0.08-0.59l-1.93-0.93l-8.25,18.56c0,0,15.8,5.63,16.71,7.91
	c0.92,2.28,0,0,0.92,2.28c0.92,2.28,29.38-0.45,29.38-0.45s13.12,3.6,20.45,0.18c7.34-3.42,27.02-17.55,38.87-14.38
	c11.85,3.17,16.39,5.55,16.39,5.55s-6.57,0.31-21.77,12.02c0,0-9.72,7.95-25.62,5.94c0,0-21.98,1.83-30.07,4.15
	s-20.68-6.16-20.68-6.16s-8.91-3.58-14.88-3.35c0,0-4.86-4.74-7.04-7.44c-2.18-2.7-5.04-1.71-5.04-1.71l-8.01,20.33l-5.63-1.63
	l7.5-19.66c0,0-22.04-2.96-33.11-30.88c0,0-6.18-9.96-12.39-15.71s-17.25-20.45-16.15-38.63s1.25-34.42,1.25-34.42
	s1.95-3.27,4.01,7.26c2.06,10.53,8.65,23.44,14.52,26.84c5.88,3.39,7.97,22.93,11.96,34.4c3.99,11.47,13.14,16.81,17.92,20.96
	c4.78,4.15,8.18,15.7,8.18,15.7l7.54,6.77l9.43-18.73c0,0-19.93-5.06-24.4-20.06c-4.48-15-12.39-33.14-15.07-35.17
	c-2.68-2.03-6.71-22.51-4.05-33.69c0,0-2.48-9.27-1.95-14.15c0.53-4.88,3.98-23.38,6.18-24.89c2.2-1.51,11.02,18.91,12.33,28.34
	c1.3,9.43,4.11,3.64,4.66,11.97c0.55,8.34,3.89,15.09,3.89,15.09s1.16,4.05,1.12,12.46s2.12,15.33,4.37,18.62s3.82,10.29,2.89,12.22
	c-0.93,1.93,1.89,9.35,3.23,10.37c1.34,1.02,7.61,11.57,8.6,14.43c1,2.87,5-7.3,5-7.3s-9.53,4.92-10.7-33.97
	c0,0-0.79-10.11-6.39-20.15s-1.59-20.21-1.59-20.21s1.1-0.75,0.69-3.7c-0.41-2.95-1.2-13.05,4.9-21.11c0,0,5.85-9.82,4.53-15.05
	s15.57-17.77,16.41-16.09c0.83,1.69-4.1,13.79-1.72,26.68c2.38,12.89,0.74,22.73-3.69,34.16c-4.43,11.43-2.88,22.63-1.97,24.91
	c0.92,2.28,1,2.87,0.53,12.54c-0.47,9.68-2.07,11.1,1.02,16.08c3.09,4.98,1.22,8.84,1.22,8.84l7.97-11.92c0,0-6.12-5.16-5.66-14.84
	c0.47-9.68,6.58-21.94,6.58-21.94s3.88-19.76,3.05-21.45c-0.83-1.69,8.07-15.54,10.35-16.45c2.28-0.92,11.42-12.99,12.01-13.08
	c0.59-0.08,7.46-11.25,7.46-11.25s13.86-12.73,16.98-11.96c3.11,0.77,2.3,12.3,2.3,12.3s-10.43,15.86-13.64,18.71
	c-3.21,2.85-7.66,18.48-7.66,18.48s-2.74,10.59-10.18,17.63c-7.44,7.04-7.99,16.13-7.99,16.13s-5.87,14.03-8.5,16.8
	s-4.23,4.19-2.89,5.21c1.34,1.02,13.88-16.94,13.88-16.94l19.82-26.17c0,0-1.65-7.58,9.09-16.88c0,0,3.9-6.55,4.25-8.4
	s8.9-13.85,11.69-15.43c2.79-1.59,9.82-11.57,9.82-11.57S380.62,323.52,392.64,325.76z"/>
<path class="st1" d="M362.79,72.55c1.33-3.07,3.76-5.49,5.97-8c6.3-7.12,11.14-15.39,15.94-23.59c3.19-5.45,6.39-10.91,9.07-16.63
	c1.9-4.05,3.55-8.23,5.76-12.12c2.01-3.54,4.46-6.8,6.9-10.05c4.41-5.87,8.81-11.73,13.22-17.6c1.26-1.67,2.57-3.39,4.4-4.4
	c2.75-1.51,6.21-1.12,9.08,0.14c3.99,1.75,7.32,5.32,8.07,9.61c1.13,6.44-3.43,12.33-7.48,17.47c-3.6,4.56-7.02,9.29-9.68,14.46
	c-1.63,3.17-2.97,6.5-4.88,9.51c-4.31,6.8-11.17,11.47-17.31,16.66c-6.56,5.55-12.47,11.88-17.56,18.81
	c-4.14,5.65-7.88,11.83-13.59,15.9c-0.45,0.32-0.94,0.64-1.49,0.7C363.05,84.09,360.76,77.26,362.79,72.55z"/>
<path class="st1" d="M386.18,80.23c2.85-2.86,5.7-5.71,8.56-8.57c1.75-1.76,3.54-3.53,5.69-4.78c2.81-1.62,6.07-2.23,9.09-3.38
	c9.93-3.79,16.52-13.03,23.12-21.36c1.3-1.64,2.64-3.28,4.37-4.44c4.03-2.71,9.35-2.36,13.92-4c5.09-1.82,8.93-5.97,13.39-9.02
	c4.46-3.05,10.64-4.96,15.12-1.94c4.79,3.22,5.03,10.09,4.48,15.83c-0.25,2.56-0.57,5.18-1.77,7.45c-0.9,1.72-2.26,3.15-3.6,4.55
	c-2.96,3.09-5.93,6.17-8.92,9.24c-4.85,4.97-9.84,9.99-16.01,13.17c-10.03,5.18-21.86,4.93-33.05,6.41
	c-8.47,1.12-16.81,3.29-24.75,6.45c-2.65,1.06-5.37,2.3-7.16,4.53c-2.18,2.71-5.13,6.8-7.17,1.72
	C379.66,87.54,383.23,83.18,386.18,80.23z"/>
<path class="st1" d="M400.71,100.51c3.52,0.24,7.2,1.1,10.49-0.19c2.18-0.85,3.95-2.57,6.17-3.32c6.77-2.29,13.08,5.2,20.22,5.58
	c3.14,0.17,6.15-1.07,9.17-1.96c5.54-1.64,11.35-2.16,17.11-2.67c1.92-0.17,3.86-0.34,5.78-0.24c2.76,0.15,5.45,0.86,8.1,1.65
	c6.91,2.06,14.01,4.7,21.13,3.59c1.81-0.28,3.62-0.8,5.44-0.62c4.53,0.46,7.6,5.28,7.72,9.83c0.12,4.55-1.92,8.85-3.91,12.94
	c-1.94,3.98-4.29,8.33-8.49,9.73c-2.81,0.94-5.88,0.32-8.77-0.3c-10.02-2.15-20.05-4.3-30.07-6.45c-3.28-0.7-6.58-1.41-9.72-2.61
	c-6.73-2.57-12.63-7.35-19.7-8.73c-6.14-1.2-12.47,0.29-18.73,0.17c-6.39-0.13-15.01-2.01-19.88-6.49
	C386.84,104.97,395.12,100.13,400.71,100.51z"/>
<path class="st1" d="M394.66,120.41c9.06,1.95,18.23,3.94,26.5,8.13c3.75,1.9,7.28,4.23,11.16,5.84c7.27,3.01,15.58,3.4,22.31,7.47
	c8.5,5.15,13.33,15.51,22.6,19.08c1.89,0.73,3.88,1.13,5.85,1.62c3.52,0.87,6.98,2.01,10.34,3.4c2.09,0.87,4.28,1.95,5.4,3.93
	c1.87,3.29,0.01,7.39-2.01,10.59c-2.17,3.46-4.73,6.95-8.48,8.56c-2.87,1.23-6.13,1.21-9.22,0.76
	c-14.81-2.12-26.74-12.93-37.02-23.79c-3.96-4.18-7.96-8.55-13.16-11.03c-2.31-1.1-4.79-1.8-7.09-2.91
	c-5.94-2.87-10.21-8.28-13.88-13.76c-0.79-1.18-1.57-2.38-2.65-3.29c-0.95-0.8-2.08-1.34-3.19-1.87
	c-3.89-1.85-13.05-4.23-15.43-7.86C382.07,118.24,393.57,121.49,394.66,120.41z"/>
<path class="st1" d="M384.21,134.46c2.17,1.42,4.34,2.84,6.5,4.27c5.28,3.46,10.57,6.93,15.45,10.94c3.49,2.87,6.76,6.01,10.02,9.14
	c4.63,4.44,9.26,8.89,13.88,13.33c3.08,2.96,6.17,5.92,8.98,9.14c1.81,2.08,3.52,4.3,4.55,6.85c1.01,2.5,1.32,5.21,1.87,7.86
	c1.49,7.25,4.81,14.11,9.55,19.79c2.71,3.24,5.98,6.3,7.06,10.38c0.59,2.24,0.45,4.61,0.02,6.89c-0.53,2.8-1.59,5.64-3.73,7.51
	c-3.55,3.09-8.9,2.68-13.47,1.54c-15.83-3.96-29.8-14.82-37.54-29.19c-1.38-2.56-2.59-5.33-2.52-8.23c0.03-1.52,0.42-3.01,0.49-4.53
	c0.19-4.14-1.94-8-4.02-11.59c-3.57-6.14-7.26-12.45-8.3-19.48c-0.44-2.98-0.39-6.05-1.17-8.96c-1.09-4.13-3.75-7.65-6.34-11.05
	c-2.4-3.14-7.88-7.91-8.84-11.78C375.35,132.01,381.09,132.41,384.21,134.46z"/>
<path class="st1" d="M361.52,146.37c1.35-3.06,5.18-5.2,8.16-3.67c1.65,0.84,2.65,2.55,3.43,4.23c2.93,6.31,3.89,13.36,6.51,19.81
	c1.47,3.62,3.46,7.02,4.87,10.67c2.37,6.11,3.11,12.83,6.09,18.67c1.91,3.75,4.72,7.06,6.01,11.07c1.6,4.99,0.66,10.39-0.1,15.58
	c-1.67,11.35-2.31,23.33,2.14,33.9c1.19,2.83,2.76,5.64,2.74,8.7c-0.02,4.86-3.92,8.71-7.54,11.96c-0.8,0.72-1.63,1.45-2.66,1.77
	c-1.13,0.35-2.35,0.16-3.5-0.09c-4.54-0.98-9.16-2.98-11.7-6.87c-3.58-5.48-1.94-12.65-1.76-19.19c0.15-5.59-0.88-11.2-3.01-16.37
	c-2.35-5.7-6.04-10.94-7.11-17.02c-2.24-12.77,7.62-25.18,6.04-38.05C368.86,171.08,356.87,156.9,361.52,146.37z"/>
<path class="st1" d="M339.83,144.97c3.47,3.56,5.81,8.09,7.4,12.8c2.63,7.82,3.26,16.15,3.87,24.37c0.28,3.79,0.56,7.58,0.84,11.37
	c0.79,10.57,1.58,21.19,4.01,31.51c0.8,3.42,1.79,6.84,1.75,10.35c-0.05,5.04-2.21,9.79-4.46,14.3
	c-4.05,8.13-8.54,16.02-13.03,23.92c-1.72,3.03-3.69,6.27-6.95,7.49c-4.68,1.75-10.04-1.78-11.93-6.4c-1.89-4.62-1.16-9.88,0-14.73
	c1.16-4.86,2.72-9.74,2.4-14.72c-0.42-6.57-4.09-12.71-3.94-19.29c0.23-10.05,9.13-18.07,10.4-28.04c0.61-4.77-0.62-9.47-0.84-14.22
	c-0.25-5.38,1.48-9.66,3.31-14.61C335.59,161.19,336.11,152.56,339.83,144.97z"/>
<path class="st1" d="M329.81,108.12c-2.3,8.89,3.11,17.77,8.27,25.37c1.23,1.81,2.54,3.69,4.46,4.74c1.71,0.93,3.72,1.1,5.66,1.24
	c3.14,0.24,6.34,0.47,9.4-0.28c4.68-1.15,8.5-4.47,11.92-7.88c2.85-2.85,5.6-5.88,7.44-9.47c3.73-7.29,3.14-16.52-1.2-23.45
	c-4.06-6.48-14.28-14.17-22.51-11.98C344.21,88.81,332.2,98.89,329.81,108.12z"/>
<path class="st2" d="M70.37,345.36c-12.4-1.34-25.57-2.56-36.79,2.9c-3.6,1.75-7.07,4.21-11.07,4.41c-6.33,0.31-11.37-5-17.24-7.39
	c-7.66-3.12-16.37-1.11-24.58-2.1c-13.21-1.59-24.96-11.78-28.4-24.63c11.18,0.09,22.37-2.48,32.38-7.46
	c5.29-2.63,10.82-6.02,16.65-5.05c4.18,0.7,7.63,3.55,11.44,5.42c16.03,7.89,36.75-2.02,52.57,6.28c4.16,2.18,7.63,5.49,11.77,7.71
	c5.94,3.19,12.84,3.95,19.22,6.1c6.38,2.15,19.86,11.07,10.27,16.61C99.1,352.49,78.6,346.25,70.37,345.36z"/>
<path class="st2" d="M87.51,321.51c-32.8-8.37-58.73-34.28-91.15-44.02c-6.26-1.88-12.78-3.17-18.57-6.21
	c-11.33-5.95-18.23-17.66-24.55-28.79c1.84-0.18,3.68-0.36,5.51-0.54c0.57-1.39,1.14-2.78,1.7-4.17
	c12.27,2.25,25.13-2.79,37.25,0.13c14.49,3.5,23.88,17.14,36.19,25.54c13.28,9.06,30.09,12.01,42.96,21.64
	c6.58,4.92,11.83,11.37,17.01,17.75c2.17,2.67,17.76,18.85,16.1,21.42C107.2,328.52,90.98,322.4,87.51,321.51z"/>
<path class="st2" d="M57.55,265.68c-4.95-3.26-9.98-6.6-13.73-11.19c-3.08-3.77-5.17-8.24-7.92-12.26
	c-3.19-4.65-7.23-8.63-10.91-12.9C19.12,222.53,14.15,215,9.2,207.5c-11.17-16.94-22.45-34.08-29.4-53.14
	c16.6,5.13,31.98,14.18,44.53,26.2c7.39,7.08,13.87,15.21,22.25,21.06c10.01,6.99,22.73,10.76,29.95,20.61
	c2.82,3.86,4.57,8.37,6.48,12.75c7.89,18.06,19.12,34.66,32.95,48.7c2,2.03,4.08,4.05,5.43,6.55c1.62,3,4.27,14.63-0.55,16.21
	c-3.97,1.3-16.74-10.08-20.27-12.4C86.24,284.58,71.9,275.13,57.55,265.68z"/>
<path class="st2" d="M118.35,269.02C103.84,247.2,89.14,225,81.31,199.99c-1.32-4.22-2.44-8.51-4.2-12.56
	c-1.72-3.98-4.02-7.67-6.25-11.38c-10.83-17.99-20.27-36.77-29.7-55.54c-0.55-1.1-1.1-2.46-0.45-3.51c0.39-0.63,1.12-0.95,1.83-1.18
	c7.99-2.5,16.07,3.89,20.65,10.9c4.58,7.01,7.72,15.34,14.45,20.32c5.52,4.09,12.74,5.33,18.36,9.29
	c11.64,8.19,12.81,24.58,14.3,38.73c1.4,13.33,4.05,26.52,7.9,39.36c0.86,2.87,1.9,5.9,4.28,7.72c1.61,1.24,3.67,1.77,5.34,2.91
	c3.2,2.18,4.53,6.16,5.66,9.86c1.93,6.32,12.88,28.94,6.67,33.84C133.02,294.4,121.51,273.77,118.35,269.02z"/>
<path class="st2" d="M117.37,135.27c19.73,28.89,40.14,59.69,42.21,94.61c0.27,4.49,0.22,9.01,0.97,13.45
	c1.44,8.56,15.02,34.62-1.85,35.74c-14.29,0.95-19.62-26.92-22.66-36.77c-5.39-17.45-9.07-35.37-11.92-53.4
	c-1.46-9.21-2.68-18.46-3.8-27.71C119.54,154.82,120.82,140.32,117.37,135.27z"/>
<ellipse class="st2" cx="154.47" cy="329.87" rx="25.03" ry="17.1"/>
<g>
	<path class="st3" d="M121.85,19.32c-3.35-1.31-6-3.98-9.26-5.5c-7.04-3.28-15.28-0.62-22.57,2.05c-1.52,0.56-3.11,1.16-4.19,2.38
		c-2.52,2.86-0.85,7.55,1.97,10.11c3.52,3.2,8.64,4.54,13.28,3.48c3.42-0.78,6.87-2.78,10.21-1.71c1.3,0.42,2.42,1.27,3.7,1.77
		c2.36,0.91,5.03,0.51,7.5,1.08c3.4,0.78,6.1,3.3,9.17,4.95c6.82,3.65,18.79,3.28,13.34-7.05
		C139.36,20.19,131.18,22.96,121.85,19.32z"/>
	<path class="st3" d="M172.48,15.19c1.3-3.8,3.26-7.37,5.78-10.5c0.65-0.8,1.35-1.63,1.56-2.64c0.37-1.75-0.84-3.39-1.86-4.86
		c-3.03-4.33-5.06-9.93-3.25-14.89c1.01-2.75,3.07-4.98,4.36-7.61c2.15-4.41,1.94-9.55,2.56-14.42s2.59-10.19,7.1-12.13
		c3.34-1.44,7.33-0.57,10.41,1.36c3.08,1.94,5.44,4.82,7.68,7.68c0.43,0.55,0.88,1.15,0.96,1.85c0.09,0.78-0.31,1.53-0.74,2.18
		c-2.2,3.35-5.61,5.66-8.55,8.38s-5.59,6.3-5.4,10.3c0.19,4.06,3.28,7.6,3.32,11.67c0.07,7.57-9.96,11.99-10.63,19.54
		c-0.15,1.68,0.19,3.43-0.28,5.05C183.56,22.76,168.74,26.17,172.48,15.19z"/>
	<path class="st3" d="M179.73,30.56c-0.22-0.43-0.41-0.92-0.3-1.4c0.17-0.75,0.97-1.14,1.61-1.55c3.62-2.34,3.93-7.72,7.12-10.62
		c1.43-1.3,3.48-2.19,3.98-4.05c0.24-0.91,0.04-1.86,0.01-2.8c-0.16-4.27,3-7.9,6.19-10.73s6.82-5.63,8.14-9.69
		c1.95-5.98-1.68-12.96,1.07-18.62c0.58-1.19,1.47-2.29,2.69-2.78c0.87-0.35,1.83-0.36,2.76-0.33c7.57,0.25,15.01,3.45,20.39,8.78
		c1.88,1.86,3.56,4.07,4.11,6.65c0.66,3.11-0.4,6.32-1.62,9.25c-0.69,1.66-1.47,3.34-2.71,4.64c-4.46,4.69-13.1,3.05-17.4,7.89
		c-3.36,3.78-2.53,9.9-5.53,13.97c-2.68,3.64-7.57,4.65-11.63,6.63C193.08,28.51,185.01,40.77,179.73,30.56z"/>
	<path class="st3" d="M200.04,46.97c0.43-0.45,0.84-0.96,1.39-1.25c1.86-1,3.9,0.76,5.66,1.93c3.65,2.44,8.79,2.38,12.39-0.12
		c2.34-1.63,4.05-4.16,6.68-5.27c3.48-1.47,7.54,0.03,10.58,2.27c1.54,1.14,3.29,2.56,5.15,2.08c0.98-0.25,1.74-1,2.45-1.71
		c1.73-1.74,3.45-3.47,5.18-5.21c0.66-0.66,1.33-1.36,1.6-2.25c0.21-0.7,0.14-1.46,0.04-2.19c-0.64-4.71-2.48-9.25-5.29-13.09
		c-2.73-3.72-7.19-6.98-11.65-5.8c-3.07,0.82-5.31,3.55-8.33,4.56c-1.57,0.52-3.26,0.55-4.86,0.97c-4.55,1.21-7.93,5.56-12.61,6.12
		c-0.93,0.11-1.91,0.07-2.78,0.42c-1.02,0.42-1.75,1.31-2.48,2.14c-2.77,3.13-6.12,5.45-9.84,7.31c-2.68,1.34-5.75,2.8-6.8,5.89
		C183.84,51.55,196.51,50.65,200.04,46.97z"/>
	<path class="st3" d="M183.02,60.85c1.16-0.27,2.3-0.74,3.49-0.69c1.94,0.08,3.56,1.51,4.74,3.06c1.18,1.54,2.14,3.3,3.66,4.51
		c1.15,0.92,2.58,1.49,4.05,1.59c1.73,0.13,3.47-0.37,5.2-0.26c2.51,0.16,4.81,1.61,6.5,3.47c1.7,1.86,2.88,4.12,4.02,6.37
		c0.31,0.61,0.65,1.26,1.23,1.61c0.5,0.3,1.11,0.36,1.7,0.33c3.8-0.18,6.88-3.28,10.63-3.92c4.13-0.71,8.08,1.65,12,3.14
		c0.64,0.24,1.32,0.47,1.99,0.33c0.54-0.11,1.01-0.45,1.45-0.79c1-0.77,1.96-1.59,2.88-2.45c0.37-0.35,0.76-0.73,0.86-1.23
		c0.08-0.42-0.05-0.85-0.2-1.26c-2.52-6.98-8.94-12.4-16.24-13.72c-4.26-0.77-8.65-0.23-12.94-0.83c-1.47-0.21-2.94-0.56-4.22-1.32
		c-1.06-0.63-1.94-1.53-2.93-2.28c-2.72-2.08-6.28-3.04-9.68-2.6c-2.3,0.3-4.53,1.2-6.85,1.2c-3.12,0-5.89-1.63-8.33-3.41
		c-1.7-1.24-3.87-3.97-6.18-2.65C175.57,51.51,177.4,62.16,183.02,60.85z"/>
	<path class="st3" d="M171.26,81.2c0.89,4.1,3.03,7.85,5.72,11.07c2.11,2.53,4.64,4.8,7.69,6.06s6.67,1.38,9.55-0.23
		c2.31-1.29,3.93-3.54,5.16-5.89c0.73-1.4,1.36-2.92,1.29-4.5c-0.06-1.32-0.61-2.57-1.26-3.72c-2.37-4.18-6.3-7.44-10.85-9.01
		c-1.46-0.5-3.08-0.9-4.04-2.11c-0.96-1.21-0.99-2.89-1.55-4.33c-0.84-2.15-2.79-3.62-4.4-5.28c-2.63-2.72-4.42-6.13-6.17-9.48
		c-0.89,0.67-1.78,1.33-2.67,2c-0.34,0.25-0.69,0.52-0.84,0.92c-0.13,0.33-0.09,0.7-0.05,1.05c0.24,2.16,0.51,4.4,1.65,6.25
		c0.52,0.85,1.21,1.58,1.65,2.48c1.06,2.17-0.64,4.77-1.02,6.93C170.67,75.97,170.71,78.64,171.26,81.2z"/>
	<path class="st3" d="M154.6,56.8c-1.13,1.11-2.32,2.33-2.6,3.9c-0.16,0.93,0.02,1.9-0.17,2.83c-0.22,1.03-0.89,1.9-1.53,2.72
		c-1.31,1.67-2.62,3.35-4.1,4.87c-2.54,2.61-5.68,4.8-9.25,5.5s-7.62-0.31-9.93-3.12c-0.17-0.2-0.33-0.43-0.34-0.7
		c-0.01-0.27,0.15-0.52,0.31-0.74c1.19-1.71,2.45-3.42,4.1-4.7c1.58-1.22,3.44-2,5.16-3.01c3.58-2.11,6.47-5.18,9.57-7.95
		c3.1-2.77,6.62-5.33,10.71-6.03C163.42,49.2,156.01,55.41,154.6,56.8z"/>
	<path class="st3" d="M146.51,89.56c-0.93,2.51-1.84,5.18-1.36,7.82c0.49,2.67,2.33,4.87,4.13,6.91c1.73,1.96,3.83,4.05,6.44,4.01
		c1.85-0.03,3.51-1.18,4.78-2.53c4.2-4.48,5.02-11.59,2.54-17.21c-0.99-2.23-2.46-4.34-2.71-6.77c-0.18-1.78,0.32-3.54,0.82-5.26
		c1.13-3.91,2.27-7.83,3.4-11.74c0.89-3.07,1.76-6.48,0.4-9.37c-1.54-3.28-6.12,1.03-7.02,2.98c-1.02,2.22-0.51,4.92-1.32,7.25
		C153.8,73.76,149.51,81.47,146.51,89.56z"/>
	<path class="st3" d="M136.71,57.86c-2.9,1.8-7.01,2.35-9.53,0.04c-0.5-0.46-0.93-1.02-1.52-1.34c-1.68-0.92-3.66,0.37-5.33,1.31
		c-4,2.24-9.03,2.5-13.24,0.71c-3.5-1.5-6.29-4.25-8.99-6.94c-0.74-0.73-1.5-1.51-1.8-2.5c-0.49-1.59,0.34-3.32,1.53-4.48
		c2.12-2.06,5.46-2.77,8.24-1.73c3.6,1.34,6.4,5.31,10.21,4.84c2.66-0.33,4.5-2.74,6.84-4.04c4.93-2.74,10.95-0.25,16.55,0.47
		c3.66,0.47,6.87-0.19,10.43-0.83c2.37-0.43,4.71-0.6,2.91,1.88c-1.4,1.94-4.87,2.99-6.81,4.34
		C142.72,51.99,140.31,55.63,136.71,57.86z"/>
	
		<ellipse transform="matrix(0.7071 -0.7071 0.7071 0.7071 21.4505 128.587)" class="st3" cx="165.94" cy="38.4" rx="10.93" ry="12.55"/>
	<path class="st3" d="M176.31-24.37c-0.49-0.04-1-0.08-1.44-0.29c-0.42-0.2-0.75-0.53-1.08-0.86c-0.74-0.74-1.47-1.48-2.21-2.21
		c-0.12-0.12-0.24-0.24-0.31-0.39c-0.18-0.39,0-0.85,0.23-1.21c0.8-1.28,2.18-2.19,3.67-2.42c1.49-0.22,3.08,0.24,4.22,1.23
		c0.3,0.26,0.57,0.57,0.66,0.95c0.06,0.28,0.02,0.57-0.03,0.86c-0.1,0.6-0.19,1.19-0.29,1.79
		C179.39-24.87,178.38-24.21,176.31-24.37z"/>
	<path class="st3" d="M109.22,8.61c-0.69-0.58-1.61-0.83-2.5-0.97c-0.83-0.13-1.69-0.19-2.51,0.04c-1.4,0.39-2.43,1.55-3.37,2.66
		c-0.13,0.15-0.27,0.31-0.33,0.51c-0.11,0.37,0.06,0.76,0.27,1.08c1.02,1.62,2.83,2.72,4.74,2.87
		C109.17,15.08,112.95,11.74,109.22,8.61z"/>
	<path class="st3" d="M137.96,93.21c-0.5-0.39-1.24-0.46-1.98-0.45c-0.69,0.01-1.41,0.1-2.13,0.41c-1.25,0.55-2.29,1.68-3.26,2.76
		c-0.13,0.15-0.27,0.31-0.35,0.48c-0.15,0.33-0.06,0.63,0.06,0.88c0.62,1.22,1.99,1.88,3.59,1.72
		C136.94,98.71,140.65,95.31,137.96,93.21z"/>
</g>
<path class="st4" d="M352.81,206.63c0.24,10.54,3.41,20.89,3.25,31.43c-0.23,14.94-7.56,29.61-19.38,38.75
	c-3.18,2.46-6.82,4.59-10.82,4.99c-4.01,0.4-8.43-1.29-10.28-4.87c-1.13-2.18-1.2-4.74-1.24-7.19c-0.15-8.57-0.29-17.21,1.29-25.63
	c0.99-5.26,2.64-10.4,3.15-15.73c0.58-6.08-0.35-12.24,0.35-18.3c1.28-10.97,7.81-20.9,8.53-31.93c0.6-9.22-2.6-38.03,14.62-22.14
	C357.05,169.65,352.42,189.22,352.81,206.63z"/>
<path class="st4" d="M381.92,168.78c9.73,32.25,19.55,65.07,19.58,98.75c0,3.93-0.29,8.27-3.07,11.06
	c-3.04,3.06-8.25,3.06-12.02,0.97c-3.77-2.09-6.34-5.84-8.31-9.68c-2.8-5.47-4.65-11.42-5.45-17.51
	c-0.72-5.49-0.64-11.24-3.02-16.23c-1.87-3.92-5.11-7.04-7.14-10.89c-4.86-9.22-1.9-20.36-0.01-30.61
	c1.55-8.34,2.3-16.83,2.28-25.31c-0.01-3.42-3.31-19.65-0.93-21.59C373.65,139.77,380.52,164.14,381.92,168.78z"/>
<path class="st4" d="M459.71,241.53c-10.24,2.61-21.56,0.56-30.24-5.47c-11.17-7.76-17.13-20.86-22.58-33.32
	c-3.42-7.82-6.85-15.67-9.12-23.89c-2.61-9.46-3.95-19.93-10.68-27.08c-5.12-5.43-12.93-8.38-16.41-14.98
	c4.81-3.45,11.39-3.58,17.03-1.76c5.63,1.83,10.52,5.37,15.26,8.92c8.21,6.15,16.37,12.58,22.74,20.63
	c3.08,3.9,5.71,8.13,8.32,12.35c3.47,5.59,7.34,10.65,8.56,17.11c1.12,5.96,1.85,10.47,4.9,15.99
	C448.49,211.83,464.91,241.53,459.71,241.53z"/>
<path class="st4" d="M496.67,169.73c3.78,2.8,6.23,8.19,3.93,12.29c-7.27,5.28-16.93,5.45-25.91,5.41
	c-4.96-0.02-10.02-0.06-14.71-1.68c-8-2.77-13.77-9.75-18.38-16.85c-2.2-3.38-4.3-6.95-7.46-9.46c-3.95-3.14-9.1-4.29-13.51-6.75
	c-6.45-3.59-10.98-9.75-15.98-15.18c-5-5.43-11.28-10.54-18.66-10.82c-1.58-5.06,4.91-9.19,10.19-8.78
	c11.71,0.89,19.53,12.65,30.54,16.74c9.35,3.47,20.37,1.13,29.17,5.82c7.64,4.07,9.95,12.28,16.07,17.71
	C479.02,164.43,489.32,164.28,496.67,169.73z"/>
<path class="st4" d="M507.8,125.44c-0.06,1.89-0.23,3.89-1.3,5.46c-1.9,2.8-5.79,3.22-9.17,3.22c-15.18,0.01-30.37-2.97-44.41-8.73
	c-4.98-2.04-9.84-4.43-15.01-5.93c-8.89-2.58-18.31-2.4-27.49-3.56c-9.18-1.16-18.76-4.02-24.75-11.07
	c5.53-3.31,12.01-4.58,18.34-5.79c5.33-1.02,10.8-2.04,16.16-1.2c7.31,1.15,13.85,5.67,21.23,6.32c13.61,1.19,26.66-5.96,40.75-4.82
	c5.33,0.43,17.37-1.72,21.35,1.44C508.35,104.64,507.97,119.88,507.8,125.44z"/>
<path class="st4" d="M486.05,35.73c0.47,10.78-8.01,19.74-16.53,26.36c-5.75,4.47-11.86,8.57-18.59,11.37
	c-20.84,8.67-46.77,4.64-64.42,18.71c-3.14-6.42,0.45-14.41,5.98-18.94c5.53-4.53,12.59-6.61,19.16-9.42
	c6.57-2.81,13.22-6.88,15.97-13.48c1.63-3.92,1.93-8.74,5.22-11.43c2.13-1.74,5-2.13,7.63-2.95c6.98-2.19,12.37-7.6,17.81-12.5
	c3.35-3.02,7.19-6.05,11.7-6.21C479.69,16.91,485.67,27.21,486.05,35.73z"/>
<path class="st4" d="M425.8,27.96c-20.01,16.83-39.21,34.62-57.51,53.29c-4.64-8.31,0.27-18.52,5.09-26.72
	c7.89-13.4,15.78-26.8,23.67-40.2c4.98-8.46,14.24-33.72,24.94-35.03c9.43-1.15,16.07,7.3,16.93,15.52
	C440.31,8.16,435.96,19.41,425.8,27.96z"/>
<path class="st4" d="M373.35,120.58c0.63-0.77,1.47-1.37,1.97-2.23c0.51-0.88,0.62-1.93,0.71-2.94c0.29-3.16,0.59-6.32,0.88-9.47
	c0.32-3.4,0.6-7.02-0.96-10.05c-1.09-2.12-2.97-3.73-5.03-4.93c-6.06-3.55-13.43-3.79-20.45-3.92c-3.54-0.06-7.25-0.08-10.36,1.6
	c-2,1.08-3.59,2.79-5.04,4.54c-2.72,3.29-5.11,6.95-6.25,11.07c-2.91,10.58,3,21.51,9.66,30.23c0.78,1.02,1.62,2.07,2.77,2.65
	c1.21,0.6,2.62,0.62,3.97,0.57c6.21-0.22,14.72-1.05,20.34-3.99C371.73,130.47,369.39,125.43,373.35,120.58z"/>
<path class="st2" d="M32.55,346.63c-5.26,0.71-10.47,2.18-15.78,2.01c-3.32-0.1-6.57-0.84-9.81-1.58
	c-9.54-2.17-19.08-4.34-28.63-6.52c-5.4-1.23-11.06-2.59-15.15-6.33c-4.09-3.73-5.83-10.66-2.19-14.84
	c2.77-3.17,7.42-3.68,11.62-3.97c19.94-1.39,39.89-2.77,59.83-4.16c5.18-0.36,10.44-0.71,15.51,0.4c5.72,1.26,10.86,4.31,15.89,7.32
	c11.5,6.88,23,13.76,34.5,20.64c20.49,12.26-12.16,11.6-20.91,10.66C62.51,348.68,47.64,344.59,32.55,346.63z"/>
</svg>
