<svg id="Capa_1" data-name="Capa 1" xmlns="http://www.w3.org/2000/svg" viewBox="0 0 1658.97 679.63"><defs><style>.cls-1{fill:#bfc4e3;}.cls-2{fill:#e2b2a2;}</style></defs><title>background1</title><path class="cls-1" d="M-49.56,566.72S51.51,231.36,327.15,317.88s232,406.57,108,443.32-262.62,3.07-256.5,55.9S35.43,909,24,840.07s152.37-167.68,88.81-199.84c0,0-16.84-23-50.53-13S-55.68,699.18-49.56,566.72Z" transform="translate(49.88 -303.61)"/><path class="cls-2" d="M729.22,930c-46.7-75,45.37-193.76,56.13-207.33,57.45-72.41,170.13-145.48,232-109.75,73.6,42.51,81.28,242.69-27.26,326.45C911,1000.36,771.78,998.3,729.22,930Z" transform="translate(49.88 -303.61)"/><path class="cls-1" d="M1592.15,579.52C1535.61,509,1320.2,530.68,1268,655c-42.87,102.14,34.16,250.2,121.22,260.33,70,8.15,129.93-74.86,151.46-104.69C1582.44,752.82,1637.33,635.88,1592.15,579.52Z" transform="translate(49.88 -303.61)"/></svg>