<?xml version="1.0" encoding="utf-8"?>
<!-- Generator: Adobe Illustrator 24.0.2, SVG Export Plug-In . SVG Version: 6.00 Build 0)  -->
<svg version="1.1" id="Capa_1" xmlns="http://www.w3.org/2000/svg" xmlns:xlink="http://www.w3.org/1999/xlink" x="0px" y="0px"
	 viewBox="0 0 64 64" style="enable-background:new 0 0 64 64;" xml:space="preserve">
<style type="text/css">
	.st0{fill:none;stroke:#969696;stroke-width:3;stroke-miterlimit:10;}
	.st1{fill:none;stroke:#969696;stroke-width:2;stroke-miterlimit:10;}
</style>
<path class="st0" d="M51.96,62H13.04C6.94,62,2,57.06,2,50.96V13.04C2,6.94,6.94,2,13.04,2h38.92C58.06,2,63,6.94,63,13.04v37.92
	C63,57.06,58.06,62,51.96,62z"/>
<path class="st1" d="M34.25,38.85c0.79,0.14,0.99,0.13,1.15,0.21c4.9,2.33,9.18,1.77,12.11-1.61c3.14-3.61,3.01-7.59-0.65-11.93
	c-0.93-1.11-0.43-1.51,0.26-2.25c2.62-2.84,3.45-6.06,1.75-9.61c-1.73-3.61-4.79-5.24-8.86-5.22c-4.75,0.02-9.5,0.01-14.24,0
	c-4.08-0.01-7.12,1.68-8.81,5.29c-1.67,3.56-0.85,6.83,1.87,9.57c1.03,1.04,0.77,1.49-0.08,2.45c-3.54,3.97-3.54,8.08,0.05,12.13
	c0.91,1.03,0.92,1.51-0.03,2.45c-2.15,2.14-3.08,4.75-2.43,7.73c0.91,4.15,4.67,7.09,8.94,7.06c4.48-0.03,8.34-3,8.91-7.35
	C34.56,44.93,34.25,42,34.25,38.85z"/>
<path class="st1" d="M34.25,38.85c0,3.15,0.3,6.08-0.07,8.93c-0.57,4.35-4.43,7.32-8.91,7.35c-4.27,0.03-8.03-2.91-8.94-7.06
	c-0.65-2.99,0.28-5.6,2.43-7.73c0.96-0.95,0.95-1.42,0.03-2.45c-3.59-4.04-3.6-8.15-0.05-12.13c0.85-0.95,1.12-1.41,0.08-2.45
	c-2.72-2.74-3.54-6.01-1.87-9.57c1.7-3.62,4.74-5.3,8.81-5.29c4.75,0.01,9.5,0.02,14.24,0c4.07-0.02,7.13,1.61,8.86,5.22
	c1.7,3.55,0.87,6.77-1.75,9.61c-0.69,0.74-1.19,1.14-0.26,2.25c3.66,4.34,3.79,8.32,0.65,11.93c-2.94,3.38-7.21,3.94-12.11,1.61
	C35.24,38.98,35.04,38.99,34.25,38.85z M31.37,17.15c0-6.02,0-6.02-6.18-5.72c-0.19,0.01-0.39,0.01-0.58,0.03
	c-3.03,0.3-5.39,2.74-5.44,5.64c-0.05,2.8,2.06,5.26,4.95,5.77C30.71,24.01,31.37,23.49,31.37,17.15z M34.49,16.89
	c0,6.51,0,6.51,6.13,6.09c3.6-0.25,6.16-2.74,6.08-5.92c-0.08-3.21-2.7-5.53-6.35-5.64C34.49,11.24,34.49,11.24,34.49,16.89z
	 M31.37,31.7c0-6.04,0-6.04-6.24-5.66c-0.19,0.01-0.39,0.02-0.58,0.04c-3.1,0.34-5.3,2.7-5.32,5.68c-0.02,2.98,2.17,5.38,5.25,5.75
	C31.31,38.34,31.37,38.29,31.37,31.7z M27.46,40.65c-0.87,0-1.75-0.06-2.61,0.01c-3.5,0.31-5.98,3.06-5.64,6.23
	c0.34,3.27,3.21,5.52,6.67,5.25c3.65-0.29,5.5-2.79,5.49-7.53C31.35,40.11,31.86,40.66,27.46,40.65z M40.7,37.56
	c3.46-0.06,6.05-2.67,5.93-5.97c-0.12-3.3-2.84-5.66-6.36-5.54c-3.37,0.11-5.77,2.55-5.74,5.82C34.57,35.22,37.17,37.62,40.7,37.56z
	"/>
<path class="st1" d="M31.37,17.15c0,6.34-0.66,6.86-7.26,5.71c-2.9-0.51-5.01-2.96-4.95-5.77c0.06-2.9,2.41-5.34,5.44-5.64
	c0.19-0.02,0.39-0.02,0.58-0.03C31.37,11.13,31.37,11.13,31.37,17.15z"/>
<path class="st1" d="M34.49,16.89c0-5.65,0-5.65,5.86-5.47c3.65,0.11,6.26,2.43,6.35,5.64c0.08,3.18-2.48,5.68-6.08,5.92
	C34.49,23.4,34.49,23.4,34.49,16.89z"/>
<path class="st1" d="M31.37,31.7c0,6.59-0.06,6.64-6.9,5.82c-3.08-0.37-5.27-2.77-5.25-5.75c0.02-2.99,2.22-5.34,5.32-5.68
	c0.19-0.02,0.39-0.03,0.58-0.04C31.37,25.66,31.37,25.66,31.37,31.7z"/>
<path class="st1" d="M27.46,40.65c4.4,0,3.89-0.54,3.91,3.96c0.01,4.75-1.84,7.24-5.49,7.53c-3.46,0.27-6.33-1.98-6.67-5.25
	c-0.33-3.17,2.14-5.93,5.64-6.23C25.71,40.59,26.59,40.65,27.46,40.65z"/>
<path class="st1" d="M40.7,37.56c-3.54,0.06-6.13-2.33-6.17-5.69c-0.03-3.27,2.37-5.71,5.74-5.82c3.52-0.12,6.23,2.25,6.36,5.54
	C46.75,34.89,44.16,37.5,40.7,37.56z"/>
</svg>
